<?xml version="1.0" encoding="UTF-8" standalone="no"?><!DOCTYPE svg PUBLIC "-//W3C//DTD SVG 1.1//EN" "http://www.w3.org/Graphics/SVG/1.1/DTD/svg11.dtd"><svg width="100%" height="100%" viewBox="0 0 143 134" version="1.1" xmlns="http://www.w3.org/2000/svg" xmlns:xlink="http://www.w3.org/1999/xlink" xml:space="preserve" xmlns:serif="http://www.serif.com/" style="fill-rule:evenodd;clip-rule:evenodd;stroke-linejoin:round;stroke-miterlimit:2;"><g id="CWV-A4BEE-logotype-CWV" serif:id="CWV/A4BEE logotype CWV"><path id="CBH-A4BEE-type-B" serif:id="CBH/A4BEE type B" d="M92.928,133.97l0,-31.625l22.066,0l0,6.477l-14.696,0l0,5.941l13.133,0l-0,6.12l-13.133,-0l0,6.566l14.696,-0l0,6.521l-22.066,0Zm27.114,0l-0,-31.625l22.066,0l-0,6.477l-14.696,0l-0,5.941l13.132,0l0,6.12l-13.132,-0l-0,6.566l14.696,-0l-0,6.521l-22.066,0Zm-31.421,-9.201c-0,1.727 -0.342,3.179 -1.027,4.355c-0.685,1.176 -1.594,2.122 -2.725,2.836c-1.132,0.715 -2.42,1.229 -3.864,1.541c-1.444,0.313 -2.926,0.469 -4.444,0.469l-12.597,0l0,-31.625l12.597,0c1.221,0 2.471,0.127 3.752,0.38c1.28,0.253 2.442,0.685 3.484,1.295c1.042,0.611 1.891,1.437 2.546,2.48c0.655,1.042 0.983,2.367 0.983,3.975c-0,1.757 -0.477,3.209 -1.43,4.355c-0.953,1.147 -2.203,1.973 -3.752,2.479l0,0.09c0.893,0.148 1.735,0.424 2.524,0.826c0.789,0.402 1.474,0.916 2.055,1.541c0.58,0.625 1.042,1.355 1.384,2.189c0.343,0.833 0.514,1.772 0.514,2.814Zm-62.679,9.201l-2.457,-6.208l-12.239,-0l-2.323,6.208l-8.308,0l13.266,-31.625l7.415,0l13.133,31.625l-8.487,0Zm8.485,-5.897l11.705,-25.728l7.397,0l-9.029,19.512l7.441,0l-0,-5.899l6.963,0l-0,18.012l-6.963,0l-0,-5.897l-17.514,0Zm46.556,-4.019c-0,-1.31 -0.492,-2.218 -1.474,-2.725c-0.983,-0.506 -2.293,-0.759 -3.931,-0.759l-4.244,-0l0,7.236l4.289,0c0.595,0 1.213,-0.052 1.853,-0.156c0.641,-0.104 1.221,-0.29 1.742,-0.558c0.521,-0.269 0.946,-0.648 1.273,-1.14c0.328,-0.491 0.492,-1.124 0.492,-1.898Zm-63.528,-13.266l-4.02,10.854l7.951,-0l-3.931,-10.854Zm62.5,0.714c0,-1.072 -0.409,-1.853 -1.228,-2.345c-0.819,-0.491 -2.032,-0.737 -3.64,-0.737l-3.753,0l0,6.522l4.11,-0c1.429,-0 2.539,-0.291 3.328,-0.871c0.789,-0.581 1.183,-1.437 1.183,-2.569Z" style="fill:#fff;"/><path id="CBH-A4BEE-logo-C" serif:id="CBH/A4BEE logo C" d="M76.632,37.603l14.665,8.467c0,-0 14.665,-8.467 14.665,-8.467c0,-0 0,-16.934 0,-16.934l-14.665,-8.467l-14.665,8.467l0,12.289l-10.541,-6.085l-0,-12.29l25.206,-14.553l25.207,14.553l-0,29.106l-25.207,14.553l-25.206,-14.553l-0,-0l-14.666,-8.467l-14.665,8.467c0,-0 0,16.934 0,16.934c0,-0 14.665,8.467 14.665,8.467c0,-0 14.666,-8.467 14.666,-8.467l-0,-12.29l10.541,6.086l0,12.29l-25.207,14.553l-25.206,-14.553l-0,-29.106l25.206,-14.553l25.207,14.553l0,-0Z" style="fill:#ffdb2f;"/></g></svg>